<?xml version="1.0" encoding="utf-8"?>
<!-- Generator: Adobe Illustrator 25.4.1, SVG Export Plug-In . SVG Version: 6.00 Build 0)  -->
<svg version="1.1" id="图层_1" xmlns="http://www.w3.org/2000/svg" xmlns:xlink="http://www.w3.org/1999/xlink" x="0px" y="0px"
	 viewBox="0 0 50 50" style="enable-background:new 0 0 50 50;" xml:space="preserve">
<style type="text/css">
	.st0{fill:#0AD9FE;}
</style>
<path class="st0" d="M38.1,0c-6.7,0-12.2,5.4-12.2,12.2s5.4,12.1,12.1,12.1s12.1-5.4,12.1-12.1S44.8,0,38.1,0z M38.1,20
	c-4.4,0-7.9-3.5-7.9-7.9s3.5-7.9,7.9-7.9s7.9,3.5,7.9,7.9S42.4,20,38.1,20z M19,1.1H4.9c-2.4,0-4.3,1.9-4.3,4.3v14.1
	c0,2.4,1.9,4.3,4.3,4.3H19c2.4,0,4.3-1.9,4.3-4.3V5.4C23.3,3.1,21.4,1.1,19,1.1z M19.2,19c0,0.4-0.3,0.7-0.7,0.7h-13
	c-0.4,0-0.7-0.3-0.7-0.7V6c0-0.4,0.3-0.7,0.7-0.7h13c0.4,0,0.7,0.3,0.7,0.7C19.2,6,19.2,19,19.2,19z M19,26.3H4.9
	c-2.4,0-4.3,1.9-4.3,4.3v14.1c0,2.4,1.9,4.3,4.3,4.3H19c2.4,0,4.3-1.9,4.3-4.3V30.6C23.3,28.3,21.4,26.3,19,26.3z M19.2,44.2
	c0,0.4-0.3,0.7-0.7,0.7h-13c-0.4,0-0.7-0.3-0.7-0.7v-13c0-0.4,0.3-0.7,0.7-0.7h13c0.4,0,0.7,0.3,0.7,0.7
	C19.2,31.2,19.2,44.2,19.2,44.2z M45.1,25.8H31c-2.4,0-4.3,1.9-4.3,4.3v14.1c0,2.4,1.9,4.3,4.3,4.3h14.2c2.4,0,4.3-1.9,4.3-4.3V30.1
	C49.4,27.8,47.5,25.8,45.1,25.8z M45.3,43.7c0,0.4-0.3,0.7-0.7,0.7h-13c-0.4,0-0.7-0.3-0.7-0.7v-13c0-0.4,0.3-0.7,0.7-0.7h13
	c0.4,0,0.7,0.3,0.7,0.7V43.7z"/>
</svg>
