<?xml version="1.0" standalone="no"?><!DOCTYPE svg PUBLIC "-//W3C//DTD SVG 1.1//EN" "http://www.w3.org/Graphics/SVG/1.1/DTD/svg11.dtd"><svg t="1631503662732" class="icon" viewBox="0 0 1024 1024" version="1.1" xmlns="http://www.w3.org/2000/svg" p-id="7264" xmlns:xlink="http://www.w3.org/1999/xlink" width="50" height="50"><defs><style type="text/css"></style></defs><path d="M643.4 254.6C573 254.6 516 311.6 516 382s57 127.3 127.3 127.3 127.3-57 127.3-127.3-56.9-127.4-127.2-127.4z m0 209.9c-45.6 0-82.6-37-82.6-82.6s37-82.6 82.6-82.6 82.6 37 82.6 82.6-37 82.6-82.6 82.6zM444.1 266.5H295.7c-24.7 0-44.9 20.2-44.9 44.9v148.2c0 24.7 20.2 44.9 44.9 44.9h148.4c24.7 0 44.9-20.2 44.9-44.9V311.4c0-24.7-20.2-44.9-44.9-44.9z m1.3 187.3c0 4-3.2 7.2-7.2 7.2H301.7c-4 0-7.2-3.2-7.2-7.2V317.3c0-4 3.2-7.2 7.2-7.2h136.5c4 0 7.2 3.2 7.2 7.2v136.5zM444.1 530.7H295.7c-24.7 0-44.9 20.2-44.9 44.9v148.2c0 24.7 20.2 44.9 44.9 44.9h148.4c24.7 0 44.9-20.2 44.9-44.9V575.6c0-24.7-20.2-44.9-44.9-44.9z m1.3 187.3c0 4-3.2 7.2-7.2 7.2H301.7c-4 0-7.2-3.2-7.2-7.2V581.5c0-4 3.2-7.2 7.2-7.2h136.5c4 0 7.2 3.2 7.2 7.2V718zM717.5 525.5H569.2c-24.7 0-44.9 20.2-44.9 44.9v148.2c0 24.7 20.2 44.9 44.9 44.9h148.4c24.7 0 44.9-20.2 44.9-44.9V570.4c0-24.7-20.2-44.9-45-44.9z m1.3 187.2c0 4-3.2 7.2-7.2 7.2H575.1c-4 0-7.2-3.2-7.2-7.2V576.2c0-4 3.2-7.2 7.2-7.2h136.5c4 0 7.2 3.2 7.2 7.2v136.5z" fill="#ffffff" p-id="7265"></path></svg>