<?xml version="1.0" standalone="no"?><!DOCTYPE svg PUBLIC "-//W3C//DTD SVG 1.1//EN" "http://www.w3.org/Graphics/SVG/1.1/DTD/svg11.dtd"><svg t="1631503704406" class="icon" viewBox="0 0 1024 1024" version="1.1" xmlns="http://www.w3.org/2000/svg" p-id="9659" xmlns:xlink="http://www.w3.org/1999/xlink" width="50" height="50"><defs><style type="text/css"></style></defs><path d="M128 915.2l320-185.6c38.4-25.6 89.6-25.6 128 0l320 185.6V128c0-38.4-25.6-64-64-64H192c-38.4 0-64 25.6-64 64v787.2zM192 0h640c70.4 0 128 57.6 128 128v838.4c0 19.2-12.8 32-32 32-6.4 0-12.8 0-12.8-6.4l-371.2-211.2c-19.2-12.8-44.8-12.8-64 0L108.8 992c-12.8 6.4-32 6.4-44.8-12.8V128C64 57.6 121.6 0 192 0z" p-id="9660" fill="#ffffff"></path><path d="M499.2 499.2c6.4-6.4 19.2-6.4 32 0l76.8 38.4-19.2-83.2c0-12.8 0-19.2 6.4-25.6l57.6-57.6L576 358.4c-12.8 0-19.2-6.4-25.6-19.2L512 262.4l-38.4 76.8c-6.4 12.8-12.8 19.2-25.6 19.2l-83.2 12.8 57.6 57.6c12.8 6.4 19.2 19.2 12.8 25.6l-12.8 83.2 76.8-38.4z m-102.4 128c-25.6 12.8-51.2-6.4-51.2-38.4l19.2-128-89.6-89.6c-19.2-19.2-6.4-51.2 19.2-57.6l128-19.2 57.6-115.2c12.8-25.6 44.8-25.6 57.6 0l57.6 115.2 128 19.2c32 6.4 44.8 38.4 25.6 57.6L652.8 460.8l19.2 128c6.4 32-19.2 51.2-44.8 38.4L512 563.2l-115.2 64z" p-id="9661" fill="#ffffff"></path></svg>