<?xml version="1.0" standalone="no"?><!DOCTYPE svg PUBLIC "-//W3C//DTD SVG 1.1//EN" "http://www.w3.org/Graphics/SVG/1.1/DTD/svg11.dtd"><svg t="1631503743824" class="icon" viewBox="0 0 1024 1024" version="1.1" xmlns="http://www.w3.org/2000/svg" p-id="12286" xmlns:xlink="http://www.w3.org/1999/xlink" width="50" height="50"><defs><style type="text/css"></style></defs><path d="M991.787867 332.833083a516.458873 516.458873 0 0 0-74.807708-134.741546l68.474221-68.474221-62.201196-62.201196-863.410041 863.410041 62.201196 62.201196 76.485554-76.485554a508.94636 508.94636 0 0 0 313.51519 107.457668c282.286108 0 511.939273-229.653164 511.939272-511.939273a511.788115 511.788115 0 0 0-32.196488-179.227115z m-180.028249 479.667206c-79.931938 79.614508-185.696645 123.389639-298.051806 123.374523h-1.753424a426.747063 426.747063 0 0 1-250.920985-81.776056L450.64502 664.487139h18.713264v216.336213h87.09679v-216.154824h179.272463v-87.187485h-179.272463v-18.924884l38.136966-38.136966h141.075034v-87.187485h-53.751508l172.802934-172.802934a426.747063 426.747063 0 0 1 82.184181 251.465151 421.380982 421.380982 0 0 1-125.143063 300.606364zM297.637636 276.028199l62.077247-62.077247 146.400302 146.398791-62.078759 62.078759zM433.171245 433.277055h-144.869079v87.187485h57.681595l87.187484-87.187485z" fill="#0ad9fe" p-id="12287"></path><path d="M144.355145 722.093156c-36.867246-62.684899-56.306064-135.104323-56.306064-210.108536a424.842482 424.842482 0 0 1 424.661093-424.751788h0.211621a424.630862 424.630862 0 0 1 209.957378 56.381643l63.486032-63.486033a512.740406 512.740406 0 0 0-274.425932-80.113326C229.653164 0.015116 0 229.66828 0 511.954388a507.208052 507.208052 0 0 0 80.415641 274.078272z" fill="#0ad9fe" p-id="12288"></path></svg>